#!OML:ASF H:\charlestonDancing\Project 1\Capture day 1\Session 1\femaleDancer.ASF
:FULLY-SPECIFIED
:DEGREES
1
root -14.3538 17.5607 1.59415 -176.855 -86.8053 177.501
lowerback 6.73905 0.425475 5.30647
upperback -5.29544 1.18019 1.19455
thorax -9.34917 0.237972 -1.87258
lowerneck -3.29344 -9.60786 -6.81834
upperneck 9.58271 -12.4334 -1.68984
head 4.08007 -6.50978 -0.00144134
rclavicle 5.96354e-016 2.3059e-014
rhumerus -57.9072 -42.4918 -23.0584
rradius 42.1072
rwrist -24.6095
rhand -32.6453 -66.9415
rfingers 7.12502
rthumb 174.128 -83.1598
lclavicle 5.96354e-016 2.3059e-014
lhumerus -34.1425 23.258 -5.83802
lradius 116.499
lwrist 4.77879
lhand -17.183 18.989
lfingers 7.12502
lthumb 9.05877 48.7745
rfemur -12.7354 4.9509 17.0226
rtibia 38.3387
rfoot -23.7897 -4.42923
rtoes -20.1141
lfemur -10.4565 2.40118 -18.5607
ltibia 37.7132
lfoot -22.4717 -2.38078
ltoes -19.5619
2
root -14.3421 17.5607 1.57595 -172.095 -87.6898 172.575
lowerback 6.74964 0.310371 5.18597
upperback -5.14416 1.00026 1.01539
thorax -9.19943 0.161463 -1.97093
lowerneck -2.57718 -10.8064 -7.9182
upperneck 9.11916 -14.1007 -0.993148
head 3.98504 -7.32962 0.348925
rclavicle 3.77691e-015 -8.74653e-015
rhumerus -54.9434 -41.0968 -26.0383
rradius 43.0572
rwrist -23.9329
rhand -32.0894 -67.5742
rfingers 7.12502
rthumb 174.665 -82.513
lclavicle 3.77691e-015 -8.74653e-015
lhumerus -37.1192 23.3153 -5.4997
lradius 115.064
lwrist 4.69747
lhand -16.5643 18.7619
lfingers 7.12502
lthumb 9.65569 48.5206
rfemur -12.4242 4.50941 16.9585
rtibia 38.3451
rfoot -23.7827 -4.92367
rtoes -20.4334
lfemur -10.4167 1.98625 -18.6462
ltibia 37.657
lfoot -22.2054 -2.59772
ltoes -20.0454
3
root -14.3218 17.5603 1.55745 -165.634 -88.4384 165.974
lowerback 6.84458 0.173846 5.12656
upperback -5.02983 0.806653 0.869151
thorax -9.14251 0.0717733 -2.06702
lowerneck -1.55735 -11.859 -9.33778
upperneck 8.55943 -15.6327 0.090199
head 3.90072 -8.07985 0.894516
rclavicle -4.37326e-015 1.59028e-014
rhumerus -52.0628 -39.4872 -28.99
rradius 44.2112
rwrist -23.3483
rhand -31.8762 -67.946
rfingers 7.12502
rthumb 174.871 -82.1361
lclavicle -4.37326e-015 1.59028e-014
lhumerus -40.2953 22.6699 -5.23811
lradius 113.83
lwrist 4.98583
lhand -16.8177 19.3935
lfingers 7.12502
lthumb 9.41123 49.1633
rfemur -12.2041 4.1337 16.9798
rtibia 38.3524
rfoot -23.7612 -5.26478
rtoes -20.1766
lfemur -10.4498 1.60695 -18.6453
ltibia 37.6586
lfoot -21.9788 -2.83033
ltoes -20.1798
4
root -14.299 17.5599 1.53953 -151.845 -88.9838 152.042
lowerback 7.00474 0.0585959 5.07414
upperback -4.97293 0.645653 0.701937
thorax -9.18531 -0.00733682 -2.19413
lowerneck -0.194026 -12.75 -11.1272
upperneck 7.98865 -17.0298 1.50922
head 3.86748 -8.7725 1.63027
rclavicle -4.37326e-015 -3.97569e-015
rhumerus -49.4354 -37.6917 -31.7865
rradius 45.515
rwrist -22.9114
rhand -31.9649 -67.9082
rfingers 7.12502
rthumb 174.785 -82.176
lclavicle -4.37326e-015 -3.97569e-015
lhumerus -43.2904 21.8582 -4.68047
lradius 112.611
lwrist 5.33885
lhand -17.1899 19.9599
lfingers 7.12502
lthumb 9.05213 49.7457
rfemur -12.0094 3.86317 16.9677
rtibia 38.3439
rfoot -23.7714 -5.45331
rtoes -19.5673
lfemur -10.4669 1.3291 -18.6635
ltibia 37.6504
lfoot -21.7511 -3.11154
ltoes -20.0227
5
root -14.2862 17.5597 1.52115 -127.033 -89.4787 127.097
lowerback 6.98834 -0.0569966 5.17177
upperback -4.88344 0.490764 0.582374
thorax -9.08889 -0.0876848 -2.35384
lowerneck 0.522487 -13.4088 -11.563
upperneck 7.86948 -17.998 1.53839
head 3.81261 -9.2672 1.68936
rclavicle -3.97569e-016 5.56597e-015
rhumerus -46.9473 -35.9974 -34.2964
rradius 46.7734
rwrist -22.4435
rhand -31.9171 -67.4901
rfingers 7.12502
rthumb 174.831 -82.5929
lclavicle -3.97569e-016 5.56597e-015
lhumerus -45.6634 21.8664 -3.65867
lradius 110.834
lwrist 4.93056
lhand -17.4309 20.0824
lfingers 7.12502
lthumb 8.81954 49.8781
rfemur -11.7812 3.5787 17.1272
rtibia 38.3338
rfoot -23.7722 -5.72184
rtoes -19.5084
lfemur -10.4589 1.1257 -18.4957
ltibia 37.6534
lfoot -21.5378 -3.47577
ltoes -19.7682
6
root -14.2773 17.5581 1.50559 -52.0096 -89.4441 51.9629
lowerback 6.87541 -0.227047 5.1892
upperback -4.78139 0.246172 0.446572
thorax -8.93003 -0.205221 -2.47263
lowerneck 1.10413 -13.9087 -12.0709
upperneck 7.87507 -18.7512 1.68175
head 3.83982 -9.65678 1.79501
rclavicle 1.3418e-015 -1.66979e-014
rhumerus -44.5776 -34.3687 -36.6335
rradius 48.1038
rwrist -21.875
rhand -32.0531 -67.5636
rfingers 7.12502
rthumb 174.7 -82.5227
lclavicle 1.3418e-015 -1.66979e-014
lhumerus -48.1925 21.6552 -2.68751
lradius 109.345
lwrist 3.84951
lhand -17.4961 20.5292
lfingers 7.12502
lthumb 8.75658 50.3275
rfemur -11.5467 2.97801 17.1413
rtibia 38.3124
rfoot -23.8168 -5.81451
rtoes -19.6333
lfemur -10.4625 0.868636 -18.4447
ltibia 37.6738
lfoot -21.331 -3.83042
ltoes -19.6998
7
root -14.263 17.5565 1.49272 -33.8104 -88.9236 33.668
lowerback 6.8373 -0.359466 5.10672
upperback -4.70518 0.0423778 0.245124
thorax -8.84073 -0.301261 -2.61184
lowerneck 1.81608 -14.2611 -12.5244
upperneck 8.0216 -19.3607 2.15039
head 3.52579 -9.95542 1.80036
rclavicle -5.46658e-016 3.57812e-015
rhumerus -42.5306 -32.737 -38.8154
rradius 49.6065
rwrist -21.3554
rhand -32.9662 -67.7534
rfingers 7.12502
rthumb 173.818 -82.3568
lclavicle -5.46658e-016 3.57812e-015
lhumerus -50.5369 21.361 -1.67679
lradius 107.898
lwrist 2.24648
lhand -16.7387 20.2631
lfingers 7.12502
lthumb 9.48743 50.0295
rfemur -11.3709 2.24718 16.9545
rtibia 38.2656
rfoot -23.8866 -5.63783
rtoes -19.5975
lfemur -10.4972 0.601219 -18.5722
ltibia 37.7272
lfoot -21.165 -4.0331
ltoes -19.8604
